<mxfile host="app.diagrams.net" agent="Mozilla/5.0 (Windows NT 10.0; Win64; x64) AppleWebKit/537.36 (KHTML, like Gecko) Chrome/137.0.0.0 Safari/537.36" version="26.2.13">
  <diagram name="Page-1" id="iJ3O7zGOrraRx-ZBe9Uc">
    <mxGraphModel dx="983" dy="1900" grid="1" gridSize="10" guides="1" tooltips="1" connect="1" arrows="1" fold="1" page="1" pageScale="1" pageWidth="850" pageHeight="1100" math="0" shadow="0">
      <root>
        <mxCell id="0" />
        <mxCell id="1" parent="0" />
        <mxCell id="1zDihi0U0P0-fR-KAjGn-1" value="Retool" style="rounded=1;whiteSpace=wrap;html=1;" vertex="1" parent="1">
          <mxGeometry x="260" y="810" width="120" height="60" as="geometry" />
        </mxCell>
        <mxCell id="1zDihi0U0P0-fR-KAjGn-6" style="edgeStyle=orthogonalEdgeStyle;rounded=0;orthogonalLoop=1;jettySize=auto;html=1;entryX=0.25;entryY=0;entryDx=0;entryDy=0;" edge="1" parent="1" source="1zDihi0U0P0-fR-KAjGn-2" target="1zDihi0U0P0-fR-KAjGn-1">
          <mxGeometry relative="1" as="geometry" />
        </mxCell>
        <mxCell id="1zDihi0U0P0-fR-KAjGn-2" value="Pylon" style="rounded=0;whiteSpace=wrap;html=1;" vertex="1" parent="1">
          <mxGeometry x="160" y="700" width="120" height="60" as="geometry" />
        </mxCell>
        <mxCell id="1zDihi0U0P0-fR-KAjGn-7" style="edgeStyle=orthogonalEdgeStyle;rounded=0;orthogonalLoop=1;jettySize=auto;html=1;entryX=0.75;entryY=0;entryDx=0;entryDy=0;" edge="1" parent="1" source="1zDihi0U0P0-fR-KAjGn-3" target="1zDihi0U0P0-fR-KAjGn-1">
          <mxGeometry relative="1" as="geometry" />
        </mxCell>
        <mxCell id="1zDihi0U0P0-fR-KAjGn-3" value="Google Analytics 4" style="rounded=0;whiteSpace=wrap;html=1;" vertex="1" parent="1">
          <mxGeometry x="360" y="700" width="120" height="60" as="geometry" />
        </mxCell>
        <mxCell id="1zDihi0U0P0-fR-KAjGn-8" style="edgeStyle=orthogonalEdgeStyle;rounded=0;orthogonalLoop=1;jettySize=auto;html=1;entryX=0.25;entryY=1;entryDx=0;entryDy=0;" edge="1" parent="1" source="1zDihi0U0P0-fR-KAjGn-4" target="1zDihi0U0P0-fR-KAjGn-1">
          <mxGeometry relative="1" as="geometry" />
        </mxCell>
        <mxCell id="1zDihi0U0P0-fR-KAjGn-4" value="FullStory" style="rounded=0;whiteSpace=wrap;html=1;" vertex="1" parent="1">
          <mxGeometry x="160" y="920" width="120" height="60" as="geometry" />
        </mxCell>
        <mxCell id="1zDihi0U0P0-fR-KAjGn-5" value="Markprompt" style="rounded=0;whiteSpace=wrap;html=1;" vertex="1" parent="1">
          <mxGeometry x="360" y="920" width="120" height="60" as="geometry" />
        </mxCell>
        <mxCell id="1zDihi0U0P0-fR-KAjGn-9" style="edgeStyle=orthogonalEdgeStyle;rounded=0;orthogonalLoop=1;jettySize=auto;html=1;entryX=0.825;entryY=0.988;entryDx=0;entryDy=0;entryPerimeter=0;" edge="1" parent="1" source="1zDihi0U0P0-fR-KAjGn-5" target="1zDihi0U0P0-fR-KAjGn-1">
          <mxGeometry relative="1" as="geometry" />
        </mxCell>
      </root>
    </mxGraphModel>
  </diagram>
</mxfile>
